<mxfile host="Electron" agent="Mozilla/5.0 (Windows NT 10.0; Win64; x64) AppleWebKit/537.36 (KHTML, like Gecko) draw.io/24.7.8 Chrome/128.0.6613.36 Electron/32.0.1 Safari/537.36" version="24.7.8">
  <diagram name="Page-1" id="JwmTE1xSkkcrd4sPPuDT">
    <mxGraphModel dx="724" dy="434" grid="1" gridSize="10" guides="1" tooltips="1" connect="1" arrows="1" fold="1" page="1" pageScale="1" pageWidth="827" pageHeight="1169" math="1" shadow="0">
      <root>
        <mxCell id="0" />
        <mxCell id="1" parent="0" />
        <mxCell id="zi572tkJZn9Ny4pqbthr-1" value="" style="shape=trapezoid;perimeter=trapezoidPerimeter;whiteSpace=wrap;html=1;fixedSize=1;strokeWidth=2;" parent="1" vertex="1">
          <mxGeometry x="180" y="440" width="120" height="30" as="geometry" />
        </mxCell>
        <mxCell id="zi572tkJZn9Ny4pqbthr-3" value="" style="endArrow=none;html=1;rounded=0;strokeWidth=2;" parent="1" source="zi572tkJZn9Ny4pqbthr-11" edge="1">
          <mxGeometry width="50" height="50" relative="1" as="geometry">
            <mxPoint x="239.58" y="435" as="sourcePoint" />
            <mxPoint x="240" y="380" as="targetPoint" />
          </mxGeometry>
        </mxCell>
        <mxCell id="zi572tkJZn9Ny4pqbthr-4" value="" style="ellipse;whiteSpace=wrap;html=1;aspect=fixed;strokeWidth=2;" parent="1" vertex="1">
          <mxGeometry x="235" y="370" width="10" height="10" as="geometry" />
        </mxCell>
        <mxCell id="zi572tkJZn9Ny4pqbthr-5" value="" style="ellipse;whiteSpace=wrap;html=1;aspect=fixed;strokeWidth=2;" parent="1" vertex="1">
          <mxGeometry x="235" y="305" width="10" height="10" as="geometry" />
        </mxCell>
        <mxCell id="zi572tkJZn9Ny4pqbthr-6" value="" style="endArrow=none;html=1;rounded=0;strokeWidth=2;" parent="1" edge="1">
          <mxGeometry width="50" height="50" relative="1" as="geometry">
            <mxPoint x="239.71" y="370" as="sourcePoint" />
            <mxPoint x="240.13" y="315" as="targetPoint" />
          </mxGeometry>
        </mxCell>
        <mxCell id="zi572tkJZn9Ny4pqbthr-8" value="" style="endArrow=none;html=1;rounded=0;strokeWidth=2;" parent="1" edge="1">
          <mxGeometry width="50" height="50" relative="1" as="geometry">
            <mxPoint x="239.71" y="305" as="sourcePoint" />
            <mxPoint x="240.13" y="250" as="targetPoint" />
          </mxGeometry>
        </mxCell>
        <mxCell id="zi572tkJZn9Ny4pqbthr-12" value="" style="endArrow=none;html=1;rounded=0;strokeWidth=2;" parent="1" target="zi572tkJZn9Ny4pqbthr-11" edge="1">
          <mxGeometry width="50" height="50" relative="1" as="geometry">
            <mxPoint x="239.58" y="435" as="sourcePoint" />
            <mxPoint x="240" y="380" as="targetPoint" />
          </mxGeometry>
        </mxCell>
        <mxCell id="zi572tkJZn9Ny4pqbthr-11" value="" style="rounded=0;whiteSpace=wrap;html=1;strokeWidth=2;" parent="1" vertex="1">
          <mxGeometry x="235" y="430" width="10" height="20" as="geometry" />
        </mxCell>
        <mxCell id="zi572tkJZn9Ny4pqbthr-14" value="" style="ellipse;whiteSpace=wrap;html=1;aspect=fixed;strokeWidth=2;" parent="1" vertex="1">
          <mxGeometry x="235" y="240" width="10" height="10" as="geometry" />
        </mxCell>
        <mxCell id="zi572tkJZn9Ny4pqbthr-15" value="" style="rounded=0;whiteSpace=wrap;html=1;strokeWidth=2;" parent="1" vertex="1">
          <mxGeometry x="300" y="260" width="10" height="20" as="geometry" />
        </mxCell>
        <mxCell id="zi572tkJZn9Ny4pqbthr-19" value="" style="endArrow=none;html=1;rounded=0;strokeWidth=2;" parent="1" edge="1">
          <mxGeometry width="50" height="50" relative="1" as="geometry">
            <mxPoint x="239.71" y="240" as="sourcePoint" />
            <mxPoint x="240" y="210" as="targetPoint" />
          </mxGeometry>
        </mxCell>
        <mxCell id="zi572tkJZn9Ny4pqbthr-27" value="" style="endArrow=none;html=1;rounded=0;strokeWidth=2;" parent="1" edge="1">
          <mxGeometry width="50" height="50" relative="1" as="geometry">
            <mxPoint x="224.71" y="209.43" as="sourcePoint" />
            <mxPoint x="224.71" y="189.43" as="targetPoint" />
          </mxGeometry>
        </mxCell>
        <mxCell id="zi572tkJZn9Ny4pqbthr-28" value="" style="endArrow=none;html=1;rounded=0;strokeWidth=2;" parent="1" edge="1">
          <mxGeometry width="50" height="50" relative="1" as="geometry">
            <mxPoint x="254.71" y="209.43" as="sourcePoint" />
            <mxPoint x="254.71" y="189.43" as="targetPoint" />
          </mxGeometry>
        </mxCell>
        <mxCell id="zi572tkJZn9Ny4pqbthr-29" value="" style="endArrow=none;html=1;rounded=0;strokeWidth=2;" parent="1" edge="1">
          <mxGeometry width="50" height="50" relative="1" as="geometry">
            <mxPoint x="224.71" y="209.43" as="sourcePoint" />
            <mxPoint x="254.71" y="209.43" as="targetPoint" />
          </mxGeometry>
        </mxCell>
        <mxCell id="zi572tkJZn9Ny4pqbthr-51" value="" style="curved=1;endArrow=classic;html=1;rounded=0;endSize=3;" parent="1" edge="1">
          <mxGeometry width="50" height="50" relative="1" as="geometry">
            <mxPoint x="250" y="320" as="sourcePoint" />
            <mxPoint x="250" y="300" as="targetPoint" />
            <Array as="points">
              <mxPoint x="260" y="310" />
            </Array>
          </mxGeometry>
        </mxCell>
        <mxCell id="zi572tkJZn9Ny4pqbthr-52" value="" style="curved=1;endArrow=classic;html=1;rounded=0;endSize=3;" parent="1" edge="1">
          <mxGeometry width="50" height="50" relative="1" as="geometry">
            <mxPoint x="250" y="385" as="sourcePoint" />
            <mxPoint x="250" y="365" as="targetPoint" />
            <Array as="points">
              <mxPoint x="260" y="375" />
            </Array>
          </mxGeometry>
        </mxCell>
        <mxCell id="zi572tkJZn9Ny4pqbthr-53" value="" style="curved=1;endArrow=classic;html=1;rounded=0;endSize=3;" parent="1" edge="1">
          <mxGeometry width="50" height="50" relative="1" as="geometry">
            <mxPoint x="230" y="455" as="sourcePoint" />
            <mxPoint x="250" y="455" as="targetPoint" />
            <Array as="points">
              <mxPoint x="240" y="465" />
            </Array>
          </mxGeometry>
        </mxCell>
        <mxCell id="zi572tkJZn9Ny4pqbthr-54" value="" style="curved=1;endArrow=classic;html=1;rounded=0;endSize=3;" parent="1" edge="1">
          <mxGeometry width="50" height="50" relative="1" as="geometry">
            <mxPoint x="250" y="255" as="sourcePoint" />
            <mxPoint x="250" y="235" as="targetPoint" />
            <Array as="points">
              <mxPoint x="260" y="245" />
            </Array>
          </mxGeometry>
        </mxCell>
        <mxCell id="zi572tkJZn9Ny4pqbthr-56" value="" style="endArrow=none;dashed=1;html=1;rounded=0;exitX=1;exitY=0.5;exitDx=0;exitDy=0;entryX=0;entryY=0.5;entryDx=0;entryDy=0;" parent="1" source="zi572tkJZn9Ny4pqbthr-14" target="zi572tkJZn9Ny4pqbthr-15" edge="1">
          <mxGeometry width="50" height="50" relative="1" as="geometry">
            <mxPoint x="360" y="270" as="sourcePoint" />
            <mxPoint x="410" y="220" as="targetPoint" />
          </mxGeometry>
        </mxCell>
        <mxCell id="zi572tkJZn9Ny4pqbthr-58" value="" style="curved=1;endArrow=classic;html=1;rounded=0;endSize=3;" parent="1" edge="1">
          <mxGeometry width="50" height="50" relative="1" as="geometry">
            <mxPoint x="295" y="285" as="sourcePoint" />
            <mxPoint x="315" y="285" as="targetPoint" />
            <Array as="points">
              <mxPoint x="305" y="295" />
            </Array>
          </mxGeometry>
        </mxCell>
        <mxCell id="zi572tkJZn9Ny4pqbthr-60" value="" style="shape=trapezoid;perimeter=trapezoidPerimeter;whiteSpace=wrap;html=1;fixedSize=1;strokeWidth=2;" parent="1" vertex="1">
          <mxGeometry x="500" y="440" width="120" height="30" as="geometry" />
        </mxCell>
        <mxCell id="zi572tkJZn9Ny4pqbthr-61" value="" style="endArrow=none;html=1;rounded=0;strokeWidth=2;" parent="1" source="zi572tkJZn9Ny4pqbthr-67" edge="1">
          <mxGeometry width="50" height="50" relative="1" as="geometry">
            <mxPoint x="559.58" y="435" as="sourcePoint" />
            <mxPoint x="560" y="380" as="targetPoint" />
          </mxGeometry>
        </mxCell>
        <mxCell id="zi572tkJZn9Ny4pqbthr-62" value="" style="ellipse;whiteSpace=wrap;html=1;aspect=fixed;strokeWidth=2;" parent="1" vertex="1">
          <mxGeometry x="555" y="370" width="10" height="10" as="geometry" />
        </mxCell>
        <mxCell id="zi572tkJZn9Ny4pqbthr-63" value="" style="ellipse;whiteSpace=wrap;html=1;aspect=fixed;strokeWidth=2;" parent="1" vertex="1">
          <mxGeometry x="555" y="305" width="10" height="10" as="geometry" />
        </mxCell>
        <mxCell id="zi572tkJZn9Ny4pqbthr-64" value="" style="endArrow=none;html=1;rounded=0;strokeWidth=2;" parent="1" edge="1">
          <mxGeometry width="50" height="50" relative="1" as="geometry">
            <mxPoint x="559.71" y="370" as="sourcePoint" />
            <mxPoint x="560.13" y="315" as="targetPoint" />
          </mxGeometry>
        </mxCell>
        <mxCell id="zi572tkJZn9Ny4pqbthr-65" value="" style="endArrow=none;html=1;rounded=0;strokeWidth=2;" parent="1" edge="1">
          <mxGeometry width="50" height="50" relative="1" as="geometry">
            <mxPoint x="559.71" y="305" as="sourcePoint" />
            <mxPoint x="560.13" y="250" as="targetPoint" />
          </mxGeometry>
        </mxCell>
        <mxCell id="zi572tkJZn9Ny4pqbthr-66" value="" style="endArrow=none;html=1;rounded=0;strokeWidth=2;" parent="1" target="zi572tkJZn9Ny4pqbthr-67" edge="1">
          <mxGeometry width="50" height="50" relative="1" as="geometry">
            <mxPoint x="559.58" y="435" as="sourcePoint" />
            <mxPoint x="560" y="380" as="targetPoint" />
          </mxGeometry>
        </mxCell>
        <mxCell id="zi572tkJZn9Ny4pqbthr-67" value="" style="rounded=0;whiteSpace=wrap;html=1;strokeWidth=2;" parent="1" vertex="1">
          <mxGeometry x="555" y="430" width="10" height="20" as="geometry" />
        </mxCell>
        <mxCell id="zi572tkJZn9Ny4pqbthr-68" value="" style="ellipse;whiteSpace=wrap;html=1;aspect=fixed;strokeWidth=2;" parent="1" vertex="1">
          <mxGeometry x="555" y="240" width="10" height="10" as="geometry" />
        </mxCell>
        <mxCell id="zi572tkJZn9Ny4pqbthr-69" value="" style="rounded=0;whiteSpace=wrap;html=1;strokeWidth=2;" parent="1" vertex="1">
          <mxGeometry x="620" y="260" width="10" height="20" as="geometry" />
        </mxCell>
        <mxCell id="zi572tkJZn9Ny4pqbthr-70" value="" style="endArrow=none;html=1;rounded=0;strokeWidth=2;" parent="1" edge="1">
          <mxGeometry width="50" height="50" relative="1" as="geometry">
            <mxPoint x="559.71" y="240" as="sourcePoint" />
            <mxPoint x="560" y="210" as="targetPoint" />
          </mxGeometry>
        </mxCell>
        <mxCell id="zi572tkJZn9Ny4pqbthr-71" value="" style="endArrow=none;html=1;rounded=0;strokeWidth=2;" parent="1" edge="1">
          <mxGeometry width="50" height="50" relative="1" as="geometry">
            <mxPoint x="544.71" y="209.43" as="sourcePoint" />
            <mxPoint x="544.71" y="189.43" as="targetPoint" />
          </mxGeometry>
        </mxCell>
        <mxCell id="zi572tkJZn9Ny4pqbthr-72" value="" style="endArrow=none;html=1;rounded=0;strokeWidth=2;" parent="1" edge="1">
          <mxGeometry width="50" height="50" relative="1" as="geometry">
            <mxPoint x="574.71" y="209.43" as="sourcePoint" />
            <mxPoint x="574.71" y="189.43" as="targetPoint" />
          </mxGeometry>
        </mxCell>
        <mxCell id="zi572tkJZn9Ny4pqbthr-73" value="" style="endArrow=none;html=1;rounded=0;strokeWidth=2;" parent="1" edge="1">
          <mxGeometry width="50" height="50" relative="1" as="geometry">
            <mxPoint x="544.71" y="209.43" as="sourcePoint" />
            <mxPoint x="574.71" y="209.43" as="targetPoint" />
          </mxGeometry>
        </mxCell>
        <mxCell id="zi572tkJZn9Ny4pqbthr-78" value="" style="endArrow=none;dashed=1;html=1;rounded=0;exitX=1;exitY=0.5;exitDx=0;exitDy=0;entryX=0;entryY=0.5;entryDx=0;entryDy=0;" parent="1" source="zi572tkJZn9Ny4pqbthr-68" target="zi572tkJZn9Ny4pqbthr-69" edge="1">
          <mxGeometry width="50" height="50" relative="1" as="geometry">
            <mxPoint x="680" y="270" as="sourcePoint" />
            <mxPoint x="730" y="220" as="targetPoint" />
          </mxGeometry>
        </mxCell>
        <mxCell id="zi572tkJZn9Ny4pqbthr-79" value="" style="curved=1;endArrow=classic;html=1;rounded=0;endSize=3;" parent="1" edge="1">
          <mxGeometry width="50" height="50" relative="1" as="geometry">
            <mxPoint x="615" y="285" as="sourcePoint" />
            <mxPoint x="635" y="285" as="targetPoint" />
            <Array as="points">
              <mxPoint x="625" y="295" />
            </Array>
          </mxGeometry>
        </mxCell>
        <mxCell id="qfu9qTp_i4ZTBwS7Xsid-1" value="" style="endArrow=classic;html=1;rounded=0;endFill=1;strokeWidth=2;" edge="1" parent="1">
          <mxGeometry width="50" height="50" relative="1" as="geometry">
            <mxPoint x="320" y="750" as="sourcePoint" />
            <mxPoint x="320" y="700" as="targetPoint" />
          </mxGeometry>
        </mxCell>
        <mxCell id="qfu9qTp_i4ZTBwS7Xsid-2" value="" style="endArrow=none;html=1;rounded=0;startArrow=classic;startFill=1;strokeWidth=2;" edge="1" parent="1">
          <mxGeometry width="50" height="50" relative="1" as="geometry">
            <mxPoint x="290" y="770" as="sourcePoint" />
            <mxPoint x="320" y="750" as="targetPoint" />
          </mxGeometry>
        </mxCell>
        <mxCell id="qfu9qTp_i4ZTBwS7Xsid-3" value="" style="endArrow=classic;html=1;rounded=0;endFill=1;strokeWidth=2;" edge="1" parent="1">
          <mxGeometry width="50" height="50" relative="1" as="geometry">
            <mxPoint x="320" y="750" as="sourcePoint" />
            <mxPoint x="370" y="750" as="targetPoint" />
          </mxGeometry>
        </mxCell>
        <mxCell id="qfu9qTp_i4ZTBwS7Xsid-5" value="$$x_0$$" style="text;html=1;align=center;verticalAlign=middle;whiteSpace=wrap;rounded=0;fontSize=15;" vertex="1" parent="1">
          <mxGeometry x="250" y="760" width="60" height="30" as="geometry" />
        </mxCell>
        <mxCell id="qfu9qTp_i4ZTBwS7Xsid-6" value="$$y_0$$" style="text;html=1;align=center;verticalAlign=middle;whiteSpace=wrap;rounded=0;fontSize=15;" vertex="1" parent="1">
          <mxGeometry x="330" y="740" width="100" height="40" as="geometry" />
        </mxCell>
        <mxCell id="qfu9qTp_i4ZTBwS7Xsid-7" value="$$z_0$$" style="text;html=1;align=center;verticalAlign=middle;whiteSpace=wrap;rounded=0;fontSize=15;" vertex="1" parent="1">
          <mxGeometry x="255" y="680" width="100" height="40" as="geometry" />
        </mxCell>
        <mxCell id="qfu9qTp_i4ZTBwS7Xsid-38" value="" style="endArrow=classic;html=1;rounded=0;endFill=1;strokeWidth=2;fontColor=#66B2FF;labelBackgroundColor=#66B2FF;strokeColor=#66B2FF;" edge="1" parent="1">
          <mxGeometry width="50" height="50" relative="1" as="geometry">
            <mxPoint x="560" y="440" as="sourcePoint" />
            <mxPoint x="560" y="405" as="targetPoint" />
          </mxGeometry>
        </mxCell>
        <mxCell id="qfu9qTp_i4ZTBwS7Xsid-39" value="" style="endArrow=none;html=1;rounded=0;startArrow=classic;startFill=1;strokeWidth=2;fontColor=#66B2FF;labelBackgroundColor=#66B2FF;strokeColor=#66B2FF;" edge="1" parent="1">
          <mxGeometry width="50" height="50" relative="1" as="geometry">
            <mxPoint x="535" y="455" as="sourcePoint" />
            <mxPoint x="560" y="440" as="targetPoint" />
          </mxGeometry>
        </mxCell>
        <mxCell id="qfu9qTp_i4ZTBwS7Xsid-40" value="" style="endArrow=classic;html=1;rounded=0;endFill=1;strokeWidth=2;fontColor=#66B2FF;labelBackgroundColor=#66B2FF;strokeColor=#66B2FF;" edge="1" parent="1">
          <mxGeometry width="50" height="50" relative="1" as="geometry">
            <mxPoint x="560" y="439.67" as="sourcePoint" />
            <mxPoint x="525" y="439.67" as="targetPoint" />
          </mxGeometry>
        </mxCell>
        <mxCell id="qfu9qTp_i4ZTBwS7Xsid-41" value="$$x_0$$" style="text;html=1;align=center;verticalAlign=middle;whiteSpace=wrap;rounded=0;fontSize=15;fontColor=#66B2FF;" vertex="1" parent="1">
          <mxGeometry x="503" y="416" width="25" height="24" as="geometry" />
        </mxCell>
        <mxCell id="qfu9qTp_i4ZTBwS7Xsid-42" value="$$y_0$$" style="text;html=1;align=center;verticalAlign=middle;whiteSpace=wrap;rounded=0;fontSize=15;fontColor=#66B2FF;" vertex="1" parent="1">
          <mxGeometry x="515" y="450" width="20" height="14" as="geometry" />
        </mxCell>
        <mxCell id="qfu9qTp_i4ZTBwS7Xsid-43" value="$$z_0$$" style="text;html=1;align=center;verticalAlign=middle;whiteSpace=wrap;rounded=0;fontSize=15;fontColor=#66B2FF;" vertex="1" parent="1">
          <mxGeometry x="529" y="395" width="30" height="15" as="geometry" />
        </mxCell>
        <mxCell id="qfu9qTp_i4ZTBwS7Xsid-55" value="" style="endArrow=classic;html=1;rounded=0;endFill=1;strokeWidth=2;fontColor=#66B2FF;labelBackgroundColor=#66B2FF;strokeColor=#FF99FF;" edge="1" parent="1">
          <mxGeometry width="50" height="50" relative="1" as="geometry">
            <mxPoint x="560" y="375" as="sourcePoint" />
            <mxPoint x="535" y="375" as="targetPoint" />
          </mxGeometry>
        </mxCell>
        <mxCell id="qfu9qTp_i4ZTBwS7Xsid-57" value="" style="endArrow=classic;html=1;rounded=0;endFill=1;strokeWidth=2;fontColor=#66B2FF;labelBackgroundColor=#66B2FF;strokeColor=#FF99FF;" edge="1" parent="1">
          <mxGeometry width="50" height="50" relative="1" as="geometry">
            <mxPoint x="560" y="374" as="sourcePoint" />
            <mxPoint x="560" y="405" as="targetPoint" />
          </mxGeometry>
        </mxCell>
        <mxCell id="qfu9qTp_i4ZTBwS7Xsid-58" value="$$x_1$$" style="text;html=1;align=center;verticalAlign=middle;whiteSpace=wrap;rounded=0;fontSize=15;fontColor=#FF99FF;" vertex="1" parent="1">
          <mxGeometry x="515" y="352" width="25" height="24" as="geometry" />
        </mxCell>
        <mxCell id="qfu9qTp_i4ZTBwS7Xsid-59" value="$$y_1$$" style="text;html=1;align=center;verticalAlign=middle;whiteSpace=wrap;rounded=0;fontSize=15;fontColor=#FF99FF;" vertex="1" parent="1">
          <mxGeometry x="565" y="385" width="20" height="14" as="geometry" />
        </mxCell>
        <mxCell id="qfu9qTp_i4ZTBwS7Xsid-60" value="$$z_1$$" style="text;html=1;align=center;verticalAlign=middle;whiteSpace=wrap;rounded=0;fontSize=15;fontColor=#FF99FF;" vertex="1" parent="1">
          <mxGeometry x="560" y="361" width="30" height="15" as="geometry" />
        </mxCell>
        <mxCell id="qfu9qTp_i4ZTBwS7Xsid-61" value="" style="shape=waypoint;sketch=0;fillStyle=solid;size=6;pointerEvents=1;points=[];fillColor=none;resizable=0;rotatable=0;perimeter=centerPerimeter;snapToPoint=1;strokeColor=#FF99FF;" vertex="1" parent="1">
          <mxGeometry x="550" y="365" width="20" height="20" as="geometry" />
        </mxCell>
        <mxCell id="qfu9qTp_i4ZTBwS7Xsid-73" value="Base" style="text;html=1;align=center;verticalAlign=middle;whiteSpace=wrap;rounded=0;" vertex="1" parent="1">
          <mxGeometry x="280" y="432" width="60" height="30" as="geometry" />
        </mxCell>
        <mxCell id="qfu9qTp_i4ZTBwS7Xsid-74" value="Joint 1" style="text;html=1;align=center;verticalAlign=middle;whiteSpace=wrap;rounded=0;" vertex="1" parent="1">
          <mxGeometry x="185" y="410" width="60" height="30" as="geometry" />
        </mxCell>
        <mxCell id="qfu9qTp_i4ZTBwS7Xsid-83" value="" style="endArrow=classic;html=1;rounded=0;endFill=1;strokeWidth=2;fontColor=#66B2FF;labelBackgroundColor=#66B2FF;strokeColor=#FFB366;" edge="1" parent="1">
          <mxGeometry width="50" height="50" relative="1" as="geometry">
            <mxPoint x="560" y="309.5" as="sourcePoint" />
            <mxPoint x="535" y="309.5" as="targetPoint" />
          </mxGeometry>
        </mxCell>
        <mxCell id="qfu9qTp_i4ZTBwS7Xsid-84" value="" style="endArrow=classic;html=1;rounded=0;endFill=1;strokeWidth=2;fontColor=#66B2FF;labelBackgroundColor=#66B2FF;strokeColor=#FFB366;" edge="1" parent="1">
          <mxGeometry width="50" height="50" relative="1" as="geometry">
            <mxPoint x="560" y="308.5" as="sourcePoint" />
            <mxPoint x="560" y="339.5" as="targetPoint" />
          </mxGeometry>
        </mxCell>
        <mxCell id="qfu9qTp_i4ZTBwS7Xsid-85" value="$$x_2$$" style="text;html=1;align=center;verticalAlign=middle;whiteSpace=wrap;rounded=0;fontSize=15;fontColor=#FFB366;" vertex="1" parent="1">
          <mxGeometry x="515" y="286.5" width="25" height="24" as="geometry" />
        </mxCell>
        <mxCell id="qfu9qTp_i4ZTBwS7Xsid-86" value="$$y_2$$" style="text;html=1;align=center;verticalAlign=middle;whiteSpace=wrap;rounded=0;fontSize=15;fontColor=#FFB366;" vertex="1" parent="1">
          <mxGeometry x="565" y="319.5" width="20" height="14" as="geometry" />
        </mxCell>
        <mxCell id="qfu9qTp_i4ZTBwS7Xsid-87" value="$$z_2$$" style="text;html=1;align=center;verticalAlign=middle;whiteSpace=wrap;rounded=0;fontSize=15;fontColor=#FFB366;" vertex="1" parent="1">
          <mxGeometry x="560" y="295.5" width="30" height="15" as="geometry" />
        </mxCell>
        <mxCell id="qfu9qTp_i4ZTBwS7Xsid-88" value="" style="shape=waypoint;sketch=0;fillStyle=solid;size=6;pointerEvents=1;points=[];fillColor=none;resizable=0;rotatable=0;perimeter=centerPerimeter;snapToPoint=1;strokeColor=#FFB366;" vertex="1" parent="1">
          <mxGeometry x="550" y="299.5" width="20" height="20" as="geometry" />
        </mxCell>
        <mxCell id="qfu9qTp_i4ZTBwS7Xsid-89" value="" style="endArrow=classic;html=1;rounded=0;endFill=1;strokeWidth=2;fontColor=#66B2FF;labelBackgroundColor=#66B2FF;strokeColor=#84D16D;" edge="1" parent="1">
          <mxGeometry width="50" height="50" relative="1" as="geometry">
            <mxPoint x="560" y="245" as="sourcePoint" />
            <mxPoint x="535" y="245" as="targetPoint" />
          </mxGeometry>
        </mxCell>
        <mxCell id="qfu9qTp_i4ZTBwS7Xsid-90" value="" style="endArrow=classic;html=1;rounded=0;endFill=1;strokeWidth=2;fontColor=#66B2FF;labelBackgroundColor=#66B2FF;strokeColor=#84D16D;" edge="1" parent="1">
          <mxGeometry width="50" height="50" relative="1" as="geometry">
            <mxPoint x="560" y="244" as="sourcePoint" />
            <mxPoint x="560" y="275" as="targetPoint" />
          </mxGeometry>
        </mxCell>
        <mxCell id="qfu9qTp_i4ZTBwS7Xsid-91" value="$$x_3$$" style="text;html=1;align=center;verticalAlign=middle;whiteSpace=wrap;rounded=0;fontSize=15;fontColor=#84D16D;" vertex="1" parent="1">
          <mxGeometry x="515" y="222" width="25" height="24" as="geometry" />
        </mxCell>
        <mxCell id="qfu9qTp_i4ZTBwS7Xsid-92" value="$$y_3$$" style="text;html=1;align=center;verticalAlign=middle;whiteSpace=wrap;rounded=0;fontSize=15;fontColor=#84D16D;" vertex="1" parent="1">
          <mxGeometry x="565" y="255" width="20" height="14" as="geometry" />
        </mxCell>
        <mxCell id="qfu9qTp_i4ZTBwS7Xsid-93" value="$$z_3$$" style="text;html=1;align=center;verticalAlign=middle;whiteSpace=wrap;rounded=0;fontSize=15;fontColor=#84D16D;" vertex="1" parent="1">
          <mxGeometry x="559" y="226.5" width="30" height="15" as="geometry" />
        </mxCell>
        <mxCell id="qfu9qTp_i4ZTBwS7Xsid-94" value="" style="shape=waypoint;sketch=0;fillStyle=solid;size=6;pointerEvents=1;points=[];fillColor=none;resizable=0;rotatable=0;perimeter=centerPerimeter;snapToPoint=1;strokeColor=#84D16D;" vertex="1" parent="1">
          <mxGeometry x="550" y="235" width="20" height="20" as="geometry" />
        </mxCell>
        <mxCell id="qfu9qTp_i4ZTBwS7Xsid-104" value="" style="endArrow=classic;html=1;rounded=0;endFill=1;strokeWidth=2;fontColor=#66B2FF;labelBackgroundColor=#66B2FF;strokeColor=#46C7B6;" edge="1" parent="1">
          <mxGeometry width="50" height="50" relative="1" as="geometry">
            <mxPoint x="624.5" y="271" as="sourcePoint" />
            <mxPoint x="624.5" y="236" as="targetPoint" />
          </mxGeometry>
        </mxCell>
        <mxCell id="qfu9qTp_i4ZTBwS7Xsid-105" value="" style="endArrow=none;html=1;rounded=0;startArrow=classic;startFill=1;strokeWidth=2;fontColor=#66B2FF;labelBackgroundColor=#66B2FF;strokeColor=#46C7B6;" edge="1" parent="1">
          <mxGeometry width="50" height="50" relative="1" as="geometry">
            <mxPoint x="599.5" y="286" as="sourcePoint" />
            <mxPoint x="624.5" y="271" as="targetPoint" />
          </mxGeometry>
        </mxCell>
        <mxCell id="qfu9qTp_i4ZTBwS7Xsid-106" value="" style="endArrow=classic;html=1;rounded=0;endFill=1;strokeWidth=2;fontColor=#66B2FF;labelBackgroundColor=#66B2FF;strokeColor=#46C7B6;" edge="1" parent="1">
          <mxGeometry width="50" height="50" relative="1" as="geometry">
            <mxPoint x="623.5" y="269.76" as="sourcePoint" />
            <mxPoint x="588.5" y="269.76" as="targetPoint" />
          </mxGeometry>
        </mxCell>
        <mxCell id="qfu9qTp_i4ZTBwS7Xsid-107" value="$$x_4$$" style="text;html=1;align=center;verticalAlign=middle;whiteSpace=wrap;rounded=0;fontSize=15;fontColor=#46C7B6;" vertex="1" parent="1">
          <mxGeometry x="575" y="267" width="25" height="24" as="geometry" />
        </mxCell>
        <mxCell id="qfu9qTp_i4ZTBwS7Xsid-108" value="$$y_4$$" style="text;html=1;align=center;verticalAlign=middle;whiteSpace=wrap;rounded=0;fontSize=15;fontColor=#46C7B6;" vertex="1" parent="1">
          <mxGeometry x="593.5" y="285.5" width="20" height="14" as="geometry" />
        </mxCell>
        <mxCell id="qfu9qTp_i4ZTBwS7Xsid-109" value="$$z_4$$" style="text;html=1;align=center;verticalAlign=middle;whiteSpace=wrap;rounded=0;fontSize=15;fontColor=#46C7B6;" vertex="1" parent="1">
          <mxGeometry x="593.5" y="226" width="30" height="15" as="geometry" />
        </mxCell>
        <mxCell id="qfu9qTp_i4ZTBwS7Xsid-110" value="" style="endArrow=classic;html=1;rounded=0;endFill=1;strokeWidth=2;fontColor=#66B2FF;labelBackgroundColor=#66B2FF;strokeColor=#FF9999;" edge="1" parent="1">
          <mxGeometry width="50" height="50" relative="1" as="geometry">
            <mxPoint x="559.5" y="190" as="sourcePoint" />
            <mxPoint x="559.5" y="155" as="targetPoint" />
          </mxGeometry>
        </mxCell>
        <mxCell id="qfu9qTp_i4ZTBwS7Xsid-111" value="" style="endArrow=none;html=1;rounded=0;startArrow=classic;startFill=1;strokeWidth=2;fontColor=#66B2FF;labelBackgroundColor=#66B2FF;strokeColor=#FF9999;" edge="1" parent="1">
          <mxGeometry width="50" height="50" relative="1" as="geometry">
            <mxPoint x="534.5" y="205" as="sourcePoint" />
            <mxPoint x="559.5" y="190" as="targetPoint" />
          </mxGeometry>
        </mxCell>
        <mxCell id="qfu9qTp_i4ZTBwS7Xsid-112" value="" style="endArrow=classic;html=1;rounded=0;endFill=1;strokeWidth=2;fontColor=#66B2FF;labelBackgroundColor=#66B2FF;strokeColor=#FF9999;" edge="1" parent="1">
          <mxGeometry width="50" height="50" relative="1" as="geometry">
            <mxPoint x="560.5" y="190" as="sourcePoint" />
            <mxPoint x="525.5" y="190" as="targetPoint" />
          </mxGeometry>
        </mxCell>
        <mxCell id="qfu9qTp_i4ZTBwS7Xsid-113" value="$$z_t$$" style="text;html=1;align=center;verticalAlign=middle;whiteSpace=wrap;rounded=0;fontSize=15;fontColor=#FF9999;" vertex="1" parent="1">
          <mxGeometry x="528" y="145" width="30" height="15" as="geometry" />
        </mxCell>
        <mxCell id="qfu9qTp_i4ZTBwS7Xsid-114" value="$$y_t$$" style="text;html=1;align=center;verticalAlign=middle;whiteSpace=wrap;rounded=0;fontSize=15;fontColor=#FF9999;" vertex="1" parent="1">
          <mxGeometry x="517.5" y="203" width="20" height="14" as="geometry" />
        </mxCell>
        <mxCell id="qfu9qTp_i4ZTBwS7Xsid-115" value="$$x_t$$" style="text;html=1;align=center;verticalAlign=middle;whiteSpace=wrap;rounded=0;fontSize=15;fontColor=#FF9999;" vertex="1" parent="1">
          <mxGeometry x="504" y="168" width="25" height="24" as="geometry" />
        </mxCell>
        <mxCell id="qfu9qTp_i4ZTBwS7Xsid-116" value="Joint 2" style="text;html=1;align=center;verticalAlign=middle;whiteSpace=wrap;rounded=0;" vertex="1" parent="1">
          <mxGeometry x="180" y="360" width="60" height="30" as="geometry" />
        </mxCell>
        <mxCell id="qfu9qTp_i4ZTBwS7Xsid-117" value="Joint 3" style="text;html=1;align=center;verticalAlign=middle;whiteSpace=wrap;rounded=0;" vertex="1" parent="1">
          <mxGeometry x="180" y="294.5" width="60" height="30" as="geometry" />
        </mxCell>
        <mxCell id="qfu9qTp_i4ZTBwS7Xsid-118" value="Joint 4" style="text;html=1;align=center;verticalAlign=middle;whiteSpace=wrap;rounded=0;" vertex="1" parent="1">
          <mxGeometry x="180" y="230" width="60" height="30" as="geometry" />
        </mxCell>
        <mxCell id="qfu9qTp_i4ZTBwS7Xsid-119" value="Joint 5" style="text;html=1;align=center;verticalAlign=middle;whiteSpace=wrap;rounded=0;" vertex="1" parent="1">
          <mxGeometry x="306" y="254" width="60" height="30" as="geometry" />
        </mxCell>
        <mxCell id="qfu9qTp_i4ZTBwS7Xsid-121" value="Grabber" style="text;html=1;align=center;verticalAlign=middle;whiteSpace=wrap;rounded=0;" vertex="1" parent="1">
          <mxGeometry x="210" y="162" width="60" height="30" as="geometry" />
        </mxCell>
        <mxCell id="qfu9qTp_i4ZTBwS7Xsid-122" value="" style="endArrow=none;dashed=1;html=1;rounded=0;" edge="1" parent="1">
          <mxGeometry width="50" height="50" relative="1" as="geometry">
            <mxPoint x="260" y="244.76" as="sourcePoint" />
            <mxPoint x="280" y="245" as="targetPoint" />
          </mxGeometry>
        </mxCell>
        <mxCell id="qfu9qTp_i4ZTBwS7Xsid-123" value="" style="endArrow=none;dashed=1;html=1;rounded=0;" edge="1" parent="1">
          <mxGeometry width="50" height="50" relative="1" as="geometry">
            <mxPoint x="260" y="310.5" as="sourcePoint" />
            <mxPoint x="280" y="310.74" as="targetPoint" />
          </mxGeometry>
        </mxCell>
        <mxCell id="qfu9qTp_i4ZTBwS7Xsid-124" value="" style="endArrow=none;dashed=1;html=1;rounded=0;" edge="1" parent="1">
          <mxGeometry width="50" height="50" relative="1" as="geometry">
            <mxPoint x="260" y="374.76" as="sourcePoint" />
            <mxPoint x="280" y="375" as="targetPoint" />
          </mxGeometry>
        </mxCell>
        <mxCell id="qfu9qTp_i4ZTBwS7Xsid-127" value="" style="endArrow=classic;startArrow=classic;html=1;rounded=0;endSize=2;startSize=2;" edge="1" parent="1">
          <mxGeometry width="50" height="50" relative="1" as="geometry">
            <mxPoint x="270" y="449" as="sourcePoint" />
            <mxPoint x="270" y="375" as="targetPoint" />
          </mxGeometry>
        </mxCell>
        <mxCell id="qfu9qTp_i4ZTBwS7Xsid-128" value="" style="endArrow=classic;startArrow=classic;html=1;rounded=0;endSize=2;startSize=2;" edge="1" parent="1">
          <mxGeometry width="50" height="50" relative="1" as="geometry">
            <mxPoint x="270" y="373.5" as="sourcePoint" />
            <mxPoint x="270" y="312" as="targetPoint" />
          </mxGeometry>
        </mxCell>
        <mxCell id="qfu9qTp_i4ZTBwS7Xsid-129" value="" style="endArrow=classic;startArrow=classic;html=1;rounded=0;endSize=2;startSize=2;" edge="1" parent="1">
          <mxGeometry width="50" height="50" relative="1" as="geometry">
            <mxPoint x="270" y="310" as="sourcePoint" />
            <mxPoint x="270" y="246" as="targetPoint" />
          </mxGeometry>
        </mxCell>
        <mxCell id="qfu9qTp_i4ZTBwS7Xsid-130" value="" style="endArrow=classic;startArrow=classic;html=1;rounded=0;endSize=2;startSize=2;" edge="1" parent="1">
          <mxGeometry width="50" height="50" relative="1" as="geometry">
            <mxPoint x="270" y="245" as="sourcePoint" />
            <mxPoint x="270.48" y="189" as="targetPoint" />
          </mxGeometry>
        </mxCell>
        <mxCell id="qfu9qTp_i4ZTBwS7Xsid-132" value="$$d_1$$" style="text;html=1;align=center;verticalAlign=middle;whiteSpace=wrap;rounded=0;fontSize=10;" vertex="1" parent="1">
          <mxGeometry x="250" y="395" width="60" height="31" as="geometry" />
        </mxCell>
        <mxCell id="qfu9qTp_i4ZTBwS7Xsid-135" value="$$d_2$$" style="text;html=1;align=center;verticalAlign=middle;whiteSpace=wrap;rounded=0;fontSize=10;" vertex="1" parent="1">
          <mxGeometry x="250" y="329" width="60" height="31" as="geometry" />
        </mxCell>
        <mxCell id="qfu9qTp_i4ZTBwS7Xsid-136" value="$$d_3$$" style="text;html=1;align=center;verticalAlign=middle;whiteSpace=wrap;rounded=0;fontSize=10;" vertex="1" parent="1">
          <mxGeometry x="250" y="264.5" width="60" height="31" as="geometry" />
        </mxCell>
        <mxCell id="qfu9qTp_i4ZTBwS7Xsid-137" value="$$d_4$$" style="text;html=1;align=center;verticalAlign=middle;whiteSpace=wrap;rounded=0;fontSize=10;" vertex="1" parent="1">
          <mxGeometry x="250" y="203" width="60" height="31" as="geometry" />
        </mxCell>
      </root>
    </mxGraphModel>
  </diagram>
</mxfile>
